<svg width="502" height="502" xmlns="http://www.w3.org/2000/svg">

 <g>
  <title>background</title>
  <rect fill="none" id="canvas_background" height="602" width="802" y="-1" x="-1"/>
 </g>
 <g>
  <title>Layer 1</title>
  <path id="svg_5" d="m112.251,389.744c18.017,18.018 39,32.165 62.367,42.048c24.198,10.235 49.896,15.425 76.382,15.425c26.483,0 52.18,-5.19 76.377,-15.425c23.366,-9.884 44.349,-24.031 62.367,-42.048c18.017,-18.017 32.165,-39.001 42.048,-62.367c10.235,-24.197 15.425,-49.894 15.425,-76.378c0,-26.484 -5.19,-52.18 -15.425,-76.378c-9.884,-23.366 -24.031,-44.349 -42.048,-62.367c-18.017,-18.017 -39,-32.164 -62.367,-42.048c-24.197,-10.233 -49.894,-15.423 -76.377,-15.423c-26.486,0 -52.184,5.19 -76.382,15.425c-23.367,9.884 -44.35,24.031 -62.367,42.048c-18.016,18.017 -32.162,39 -42.045,62.367c-10.234,24.196 -15.423,49.893 -15.423,76.377s5.189,52.181 15.423,76.377c9.883,23.367 24.029,44.35 42.045,62.367zm138.749,-324.961c102.839,0 186.217,83.377 186.217,186.217s-83.377,186.217 -186.217,186.217c-102.85,0 -186.217,-83.377 -186.217,-186.217c0,-102.839 83.367,-186.217 186.217,-186.217z"/>
  <path id="svg_6" d="m284.447,208.669c-1.255,0.536 -2.237,1.563 -2.716,2.84c-0.479,1.278 -0.415,2.696 0.177,3.925c4.73,9.83 9.201,19.754 13.289,29.498c0.9,2.148 3.164,3.394 5.46,2.993c13.236,-2.281 26.819,-3.438 40.373,-3.438c22.34,0 44.434,3.112 65.668,9.25c0.457,0.133 0.924,0.197 1.389,0.197c1.082,0 2.149,-0.351 3.029,-1.023c1.26,-0.96 1.991,-2.459 1.97,-4.042c-0.475,-36.756 -12.935,-71.261 -36.032,-99.786c-1.09,-1.347 -2.808,-2.024 -4.521,-1.808c-1.432,0.183 -2.701,0.976 -3.5,2.147c-0.602,0.856 -23.825,33.258 -84.586,59.247zm88.686,-48.337c17.875,23.982 28.067,52.091 29.726,81.987c-20.094,-5.199 -40.859,-7.831 -61.829,-7.831c-12.787,0 -25.6,0.988 -38.152,2.941c-3.064,-7.175 -6.324,-14.426 -9.73,-21.649c46.904,-20.941 71.028,-44.992 79.985,-55.448z"/>
  <path id="svg_7" d="m268.953,190.051c0.895,1.663 2.612,2.63 4.404,2.63c0.615,0 1.238,-0.114 1.839,-0.352c35.925,-14.222 64.116,-32.928 83.791,-55.597c0.032,-0.037 0.072,-0.084 0.103,-0.122c1.699,-2.077 1.456,-5.125 -0.552,-6.906c-29.656,-26.315 -67.848,-40.807 -107.538,-40.807c-12.743,0 -25.44,1.49 -37.739,4.428c-1.696,0.405 -3.058,1.664 -3.595,3.323s-0.171,3.478 0.966,4.8c0.284,0.331 28.734,33.67 58.321,88.603zm-17.953,-91.154c35.561,0 69.835,12.395 97.081,35.008c-17.648,18.942 -41.983,34.884 -72.462,47.466c-22.043,-40.27 -42.73,-68.083 -52.136,-79.984c9.043,-1.654 18.266,-2.49 27.517,-2.49z"/>
  <path id="svg_8" d="m97.199,223.46c0.058,0.001 0.593,0.007 1.568,0.007c10.929,0 76.997,-0.828 142.908,-19.773c1.462,-0.42 2.652,-1.481 3.236,-2.885c0.583,-1.404 0.497,-2.996 -0.235,-4.329c-29.706,-54.026 -57.487,-89.845 -57.764,-90.2c-1.445,-1.855 -3.99,-2.45 -6.111,-1.432c-45.095,21.697 -78.153,63.784 -88.428,112.583c-0.308,1.461 0.059,2.983 0.991,4.15s2.342,1.856 3.835,1.879zm84.283,-107.782c7.053,9.466 28.317,38.95 51.364,80.096c-56.099,15.185 -111.063,17.363 -129.278,17.652c10.675,-41.88 39.318,-77.865 77.914,-97.748z"/>
  <path id="svg_9" d="m134.334,361.228c0.158,0 0.317,-0.007 0.477,-0.023c1.574,-0.151 2.986,-1.039 3.803,-2.393c29.467,-48.817 75.455,-85.346 129.494,-102.86c1.354,-0.439 2.458,-1.436 3.033,-2.739c0.575,-1.303 0.567,-2.79 -0.023,-4.087c-3.884,-8.544 -8.092,-17.347 -12.506,-26.163c-1.1,-2.198 -3.64,-3.268 -5.98,-2.528c-45.93,14.553 -99.343,21.771 -158.693,21.453c-2.717,0 -4.936,2.17 -4.999,4.886c-0.032,1.404 -0.048,2.813 -0.048,4.226c0,40.201 14.82,78.762 41.73,108.578c0.953,1.056 2.304,1.65 3.712,1.65zm117.226,-129.989c2.821,5.709 5.546,11.396 8.143,16.992c-51.876,18.134 -96.246,53.208 -126.024,99.59c-22.289,-26.981 -34.579,-60.761 -34.784,-95.924c56.668,-0.095 107.982,-7.038 152.665,-20.658z"/>
  <path id="svg_10" d="m282.482,275.614c-0.973,-2.41 -3.636,-3.672 -6.116,-2.9c-53.068,16.466 -97.444,52.257 -124.954,100.78c-1.233,2.174 -0.67,4.925 1.317,6.441c28.442,21.695 62.423,33.163 98.271,33.163c21.491,0 42.353,-4.135 62.004,-12.29c2.108,-0.874 3.356,-3.066 3.034,-5.325c-5.41,-37.872 -16.7,-78.202 -33.556,-119.869zm-31.482,127.484c-32.163,0 -62.725,-9.838 -88.669,-28.494c25.596,-43.034 65.315,-75.102 112.609,-90.925c15.033,37.959 25.325,74.703 30.623,109.336c-17.368,6.692 -35.705,10.083 -54.563,10.083z"/>
  <path id="svg_11" d="m407.305,273.22c-21.337,-6.82 -43.635,-10.278 -66.275,-10.278c-10.481,0 -21.017,0.755 -31.316,2.244c-1.489,0.215 -2.802,1.09 -3.574,2.381c-0.773,1.291 -0.923,2.861 -0.409,4.276c13.359,36.761 22.638,73.932 27.577,110.479c0.231,1.71 1.328,3.18 2.9,3.889c0.657,0.295 1.357,0.441 2.055,0.441c0.974,0 1.944,-0.285 2.779,-0.845c36.776,-24.607 62.169,-63.597 69.667,-106.973c0.425,-2.458 -1.027,-4.854 -3.404,-5.614zm-65.256,99.624c-4.967,-32.671 -13.3,-65.757 -24.822,-98.547c7.874,-0.899 15.854,-1.354 23.803,-1.354c20.118,0 39.949,2.859 59.014,8.505c-7.394,36.34 -28.21,69.083 -57.995,91.396z"/>
  <g id="svg_14"/>
  <g id="svg_15"/>
  <g id="svg_16"/>
  <g id="svg_17"/>
  <g id="svg_18"/>
  <g id="svg_19"/>
  <g id="svg_20"/>
  <g id="svg_21"/>
  <g id="svg_22"/>
  <g id="svg_23"/>
  <g id="svg_24"/>
  <g id="svg_25"/>
  <g id="svg_26"/>
  <g id="svg_27"/>
  <g id="svg_28"/>
 </g>
</svg>