<svg viewBox="0 0 512 512" xmlns="http://www.w3.org/2000/svg">
<g>
  <path d="m392.425781 114.992188c15.664063-17.457032 24.796875-35.734376 28-54.496094-44.292969-37.089844-101.269531-60.496094-163.425781-60.496094-32.09375 0-62.699219 6.210938-91.011719 17.078125 47.410157 47.5 87.058594 103.742187 118.070313 164.453125 45.695312-16.523438 83.78125-39.128906 108.367187-66.539062zm0 0"/><path d="m414.75 135.03125c-27.519531 30.671875-68.425781 55.617188-117.296875 73.746094 6.074219 13.320312 11.65625 26.917968 16.910156 40.691406 25.097657-5.398438 51.109375-8.46875 77.636719-8.46875 41.761719 0 82.332031 7.085938 119.742188 20.109375.035156-1.714844.257812-3.382813.257812-5.109375 0-66.035156-25.445312-126.09375-66.773438-171.429688-6.097656 17.570313-16.21875 34.574219-30.476562 50.460938zm0 0"/><path d="m5.847656 202.113281c31.886719 5.636719 67.214844 8.886719 101.152344 8.886719 52.609375 0 103.144531-7.46875 148.183594-20.296875-31.035156-59.628906-70.933594-114.507813-118.554688-160.402344-64.808594 34.855469-114.8125 97.925781-130.78125 171.8125zm0 0"/><path d="m509.15625 291.996094c-36.1875-13.621094-76.015625-20.996094-117.15625-20.996094-23.0625 0-45.710938 2.417969-67.554688 6.832031 22.175782 66.503907 35.007813 138.386719 37.199219 211.453125 78.015625-35.292968 135.042969-109.632812 147.511719-197.289062zm0 0"/><path d="m0 256c0 78.890625 38.027344 150.511719 94.472656 197.320312 5.980469-39.785156 23.917969-78.925781 53.132813-111.683593 34.75-38.960938 82.972656-68.136719 137.582031-84.789063-5.082031-13.109375-10.632812-25.960937-16.492188-38.632812-48.796874 14.472656-103.757812 22.785156-161.695312 22.785156-35.445312 0-72.332031-3.386719-105.769531-9.261719-.757813 7.996094-1.230469 16.074219-1.230469 24.261719zm0 0"/><path d="m170.003906 361.601562c-29.511718 33.09375-45.5 71.90625-47.550781 111.613282 39.113281 24.425781 85.132813 38.785156 134.546875 38.785156 25.980469 0 51.046875-3.953125 74.683594-11.207031-1.148438-74.6875-13.6875-148.125-36.484375-215.71875-49.902344 14.964843-93.796875 41.320312-125.195313 76.527343zm0 0"/>
  </g>
</svg>
