<svg width="394" height="394" viewBox="0 0 394 394" fill="none" xmlns="http://www.w3.org/2000/svg">
<path d="M58.251 335.744C76.268 353.762 97.251 367.909 120.618 377.792C144.816 388.027 170.514 393.217 197 393.217C223.483 393.217 249.18 388.027 273.377 377.792C296.743 367.908 317.726 353.761 335.744 335.744C353.761 317.727 367.909 296.743 377.792 273.377C388.027 249.18 393.217 223.483 393.217 196.999C393.217 170.515 388.027 144.819 377.792 120.621C367.908 97.255 353.761 76.272 335.744 58.254C317.727 40.237 296.744 26.09 273.377 16.206C249.18 5.97299 223.483 0.78299 197 0.78299C170.514 0.78299 144.816 5.97299 120.618 16.208C97.251 26.092 76.268 40.239 58.251 58.256C40.235 76.273 26.089 97.256 16.206 120.623C5.97199 144.819 0.78299 170.516 0.78299 197C0.78299 223.484 5.97199 249.181 16.206 273.377C26.089 296.744 40.235 317.727 58.251 335.744ZM197 10.783C299.839 10.783 383.217 94.16 383.217 197C383.217 299.84 299.84 383.217 197 383.217C94.15 383.217 10.783 299.84 10.783 197C10.783 94.161 94.15 10.783 197 10.783Z" fill="black"/>
<path d="M228.482 221.614C227.509 219.204 224.846 217.942 222.366 218.714C169.298 235.18 124.922 270.971 97.412 319.494C96.179 321.668 96.742 324.419 98.729 325.935C127.171 347.63 161.152 359.098 197 359.098C218.491 359.098 239.353 354.963 259.004 346.808C261.112 345.934 262.36 343.742 262.038 341.483C256.628 303.611 245.338 263.281 228.482 221.614ZM197 349.098C164.837 349.098 134.275 339.26 108.331 320.604C133.927 277.57 173.646 245.502 220.94 229.679C235.973 267.638 246.265 304.382 251.563 339.015C234.195 345.707 215.858 349.098 197 349.098Z" fill="black"/>
<path d="M259 342L224 225L183 241L129 283L105 319L129 337L200 354L259 342Z" fill="black"/>
<path d="M287.03 208.942C309.67 208.942 331.968 212.4 353.305 219.22C355.682 219.98 357.134 222.376 356.709 224.834C349.211 268.21 323.818 307.2 287.042 331.807C286.207 332.367 285.237 332.652 284.263 332.652C283.565 332.652 282.865 332.506 282.208 332.211C280.636 331.502 279.539 330.032 279.308 328.322C274.369 291.775 265.09 254.604 251.731 217.843C251.217 216.428 251.367 214.858 252.14 213.567C252.912 212.276 254.225 211.401 255.714 211.186C266.013 209.697 276.549 208.942 287.03 208.942Z" fill="black"/>
<path d="M227.731 157.509C228.21 156.232 229.192 155.205 230.447 154.669C291.208 128.68 314.431 96.278 315.033 95.422C315.832 94.251 317.101 93.458 318.533 93.275C320.246 93.059 321.964 93.736 323.054 95.083C346.151 123.608 358.611 158.113 359.086 194.869C359.107 196.452 358.376 197.951 357.116 198.911C356.236 199.583 355.169 199.934 354.087 199.934C353.622 199.934 353.155 199.87 352.698 199.737C331.464 193.599 309.37 190.487 287.03 190.487C273.476 190.487 259.893 191.644 246.657 193.925C244.361 194.326 242.097 193.08 241.197 190.932C237.109 181.188 232.638 171.264 227.908 161.434C227.316 160.205 227.252 158.787 227.731 157.509Z" fill="black"/>
<path d="M219.357 138.681C217.565 138.681 215.848 137.714 214.953 136.051C185.366 81.118 156.916 47.779 156.632 47.448C155.495 46.126 155.129 44.307 155.666 42.648C156.203 40.989 157.565 39.73 159.261 39.325C171.56 36.387 184.257 34.897 197 34.897C236.69 34.897 274.882 49.389 304.538 75.704C306.546 77.485 306.789 80.533 305.09 82.61C305.059 82.648 305.019 82.695 304.987 82.732C285.312 105.401 257.121 124.107 221.196 138.329C220.595 138.567 219.972 138.681 219.357 138.681Z" fill="black"/>
<path d="M44.767 169.467C43.792 169.467 43.257 169.461 43.199 169.46C41.706 169.437 40.296 168.748 39.364 167.581C38.432 166.414 38.065 164.892 38.373 163.431C48.648 114.632 81.706 72.545 126.801 50.848C128.922 49.83 131.467 50.425 132.912 52.28C133.189 52.635 160.97 88.454 190.676 142.48C191.408 143.813 191.494 145.405 190.911 146.809C190.327 148.213 189.137 149.274 187.675 149.694C121.764 168.639 55.696 169.467 44.767 169.467Z" fill="black"/>
<path d="M80.811 307.205C80.651 307.221 80.492 307.228 80.334 307.228C78.926 307.228 77.575 306.634 76.622 305.578C49.712 275.762 34.892 237.201 34.892 197C34.892 195.587 34.908 194.178 34.94 192.774C35.003 190.058 37.222 187.888 39.939 187.888C99.289 188.206 152.702 180.988 198.632 166.435C200.972 165.695 203.512 166.765 204.612 168.963C209.026 177.779 213.234 186.582 217.118 195.126C217.708 196.423 217.716 197.91 217.141 199.213C216.566 200.516 215.462 201.513 214.108 201.952C160.069 219.466 114.081 255.995 84.614 304.812C83.797 306.166 82.385 307.054 80.811 307.205Z" fill="black"/>  
</svg>
