<svg width="502" height="502" viewBox="0 0 502 502" fill="none" xmlns="http://www.w3.org/2000/svg">
<g clip-path="url(#clip0)">
<mask id="path-1-inside-1" fill="white">
<path d="M112.251 389.744C130.268 407.762 151.251 421.909 174.618 431.792C198.816 442.027 224.514 447.217 251 447.217C277.483 447.217 303.18 442.027 327.377 431.792C350.743 421.908 371.726 407.761 389.744 389.744C407.761 371.727 421.909 350.743 431.792 327.377C442.027 303.18 447.217 277.483 447.217 250.999C447.217 224.515 442.027 198.819 431.792 174.621C421.908 151.255 407.761 130.272 389.744 112.254C371.727 94.237 350.744 80.09 327.377 70.206C303.18 59.973 277.483 54.783 251 54.783C224.514 54.783 198.816 59.973 174.618 70.208C151.251 80.092 130.268 94.239 112.251 112.256C94.235 130.273 80.089 151.256 70.206 174.623C59.972 198.819 54.783 224.516 54.783 251C54.783 277.484 59.972 303.181 70.206 327.377C80.089 350.744 94.235 371.727 112.251 389.744V389.744ZM251 64.783C353.839 64.783 437.217 148.16 437.217 251C437.217 353.84 353.84 437.217 251 437.217C148.15 437.217 64.783 353.84 64.783 251C64.783 148.161 148.15 64.783 251 64.783V64.783Z"/>
</mask>
<path d="M112.251 389.744C130.268 407.762 151.251 421.909 174.618 431.792C198.816 442.027 224.514 447.217 251 447.217C277.483 447.217 303.18 442.027 327.377 431.792C350.743 421.908 371.726 407.761 389.744 389.744C407.761 371.727 421.909 350.743 431.792 327.377C442.027 303.18 447.217 277.483 447.217 250.999C447.217 224.515 442.027 198.819 431.792 174.621C421.908 151.255 407.761 130.272 389.744 112.254C371.727 94.237 350.744 80.09 327.377 70.206C303.18 59.973 277.483 54.783 251 54.783C224.514 54.783 198.816 59.973 174.618 70.208C151.251 80.092 130.268 94.239 112.251 112.256C94.235 130.273 80.089 151.256 70.206 174.623C59.972 198.819 54.783 224.516 54.783 251C54.783 277.484 59.972 303.181 70.206 327.377C80.089 350.744 94.235 371.727 112.251 389.744V389.744ZM251 64.783C353.839 64.783 437.217 148.16 437.217 251C437.217 353.84 353.84 437.217 251 437.217C148.15 437.217 64.783 353.84 64.783 251C64.783 148.161 148.15 64.783 251 64.783V64.783Z" fill="black"/>
<path d="M282.482 275.614C281.509 273.204 278.846 271.942 276.366 272.714C223.298 289.18 178.922 324.971 151.412 373.494C150.179 375.668 150.742 378.419 152.729 379.935C181.171 401.63 215.152 413.098 251 413.098C272.491 413.098 293.353 408.963 313.004 400.808C315.112 399.934 316.36 397.742 316.038 395.483C310.628 357.611 299.338 317.281 282.482 275.614ZM251 403.098C218.837 403.098 188.275 393.26 162.331 374.604C187.927 331.57 227.646 299.502 274.94 283.679C289.973 321.638 300.265 358.382 305.563 393.015C288.195 399.707 269.858 403.098 251 403.098Z" fill="black"/>
<path d="M313 396L278 279L237 295L183 337L159 373L183 391L254 408L313 396Z" fill="black"/>
<path d="M282.482 275.614C281.509 273.204 278.846 271.942 276.366 272.714C223.298 289.18 178.922 324.971 151.412 373.494C150.179 375.668 150.742 378.419 152.729 379.935C181.171 401.63 215.152 413.098 251 413.098C272.491 413.098 293.353 408.963 313.004 400.808C315.112 399.934 316.36 397.742 316.038 395.483C310.628 357.611 299.338 317.281 282.482 275.614ZM251 403.098C218.837 403.098 188.275 393.26 162.331 374.604C187.927 331.57 227.646 299.502 274.94 283.679C289.973 321.638 300.265 358.382 305.563 393.015C288.195 399.707 269.858 403.098 251 403.098Z" stroke="black"/>
<path d="M313 396L278 279L237 295L183 337L159 373L183 391L254 408L313 396Z" stroke="black"/>
<path fill-rule="evenodd" clip-rule="evenodd" d="M341.03 262.942C363.67 262.942 385.968 266.4 407.305 273.22C409.682 273.98 411.134 276.376 410.709 278.834C403.211 322.21 377.818 361.2 341.042 385.807C340.207 386.367 339.237 386.652 338.263 386.652C337.565 386.652 336.865 386.506 336.208 386.211C334.636 385.502 333.539 384.032 333.308 382.322C328.369 345.775 319.09 308.604 305.731 271.843C305.217 270.428 305.367 268.858 306.14 267.567C306.912 266.276 308.225 265.401 309.714 265.186C320.013 263.697 330.549 262.942 341.03 262.942Z" fill="black"/>
<path d="M407.305 273.22L407.457 272.744L407.457 272.744L407.305 273.22ZM410.709 278.834L410.216 278.749V278.749L410.709 278.834ZM341.042 385.807L340.764 385.391L340.764 385.392L341.042 385.807ZM336.208 386.211L336.002 386.667L336.003 386.667L336.208 386.211ZM333.308 382.322L333.804 382.255L333.804 382.255L333.308 382.322ZM305.731 271.843L305.261 272.014L305.261 272.014L305.731 271.843ZM306.14 267.567L306.569 267.824L306.569 267.824L306.14 267.567ZM309.714 265.186L309.785 265.681L309.786 265.681L309.714 265.186ZM407.457 272.744C386.07 265.908 363.721 262.442 341.03 262.442V263.442C363.619 263.442 385.866 266.892 407.153 273.696L407.457 272.744ZM411.202 278.919C411.669 276.215 410.072 273.58 407.457 272.744L407.153 273.696C409.292 274.38 410.599 276.537 410.216 278.749L411.202 278.919ZM341.32 386.223C378.209 361.54 403.68 322.431 411.202 278.919L410.216 278.749C402.742 321.989 377.427 360.86 340.764 385.391L341.32 386.223ZM338.263 387.152C339.334 387.152 340.402 386.839 341.321 386.222L340.764 385.392C340.012 385.895 339.14 386.152 338.263 386.152V387.152ZM336.003 386.667C336.725 386.991 337.495 387.152 338.263 387.152V386.152C337.635 386.152 337.005 386.021 336.413 385.755L336.003 386.667ZM332.813 382.389C333.067 384.27 334.273 385.887 336.002 386.667L336.414 385.755C334.999 385.117 334.011 383.794 333.804 382.255L332.813 382.389ZM305.261 272.014C318.609 308.743 327.879 345.879 332.813 382.389L333.804 382.255C328.859 345.671 319.571 308.465 306.201 271.672L305.261 272.014ZM305.711 267.31C304.861 268.73 304.696 270.457 305.261 272.014L306.201 271.672C305.738 270.399 305.873 268.986 306.569 267.824L305.711 267.31ZM309.643 264.691C308.004 264.928 306.56 265.89 305.711 267.31L306.569 267.824C307.264 266.662 308.446 265.874 309.785 265.681L309.643 264.691ZM341.03 262.442C330.525 262.442 319.965 263.199 309.642 264.691L309.786 265.681C320.061 264.195 330.573 263.442 341.03 263.442V262.442Z" fill="black"/>
<path fill-rule="evenodd" clip-rule="evenodd" d="M281.731 211.509C282.21 210.232 283.192 209.205 284.447 208.669C345.208 182.68 368.431 150.278 369.033 149.422C369.832 148.251 371.101 147.458 372.533 147.275C374.246 147.059 375.964 147.736 377.054 149.083C400.151 177.608 412.611 212.113 413.086 248.869C413.107 250.452 412.376 251.951 411.116 252.911C410.236 253.583 409.169 253.934 408.087 253.934C407.622 253.934 407.155 253.87 406.698 253.737C385.464 247.599 363.37 244.487 341.03 244.487C327.476 244.487 313.893 245.644 300.657 247.925C298.361 248.326 296.097 247.08 295.197 244.932C291.109 235.188 286.638 225.264 281.908 215.434C281.316 214.205 281.252 212.787 281.731 211.509Z" fill="black"/>
<path d="M284.447 208.669L284.643 209.129L284.644 209.129L284.447 208.669ZM281.731 211.509L281.263 211.333L281.263 211.334L281.731 211.509ZM369.033 149.422L369.442 149.71L369.446 149.704L369.033 149.422ZM372.533 147.275L372.47 146.779L372.47 146.779L372.533 147.275ZM377.054 149.083L376.665 149.398L376.665 149.398L377.054 149.083ZM413.086 248.869L412.586 248.875L412.586 248.876L413.086 248.869ZM411.116 252.911L410.813 252.513L410.813 252.514L411.116 252.911ZM406.698 253.737L406.838 253.257L406.837 253.257L406.698 253.737ZM300.657 247.925L300.572 247.432L300.571 247.432L300.657 247.925ZM295.197 244.932L295.658 244.739L295.658 244.739L295.197 244.932ZM281.908 215.434L282.359 215.217L282.358 215.217L281.908 215.434ZM284.251 208.209C282.87 208.799 281.79 209.928 281.263 211.333L282.199 211.685C282.63 210.536 283.514 209.611 284.643 209.129L284.251 208.209ZM368.624 149.134C368.066 149.928 344.912 182.263 284.25 208.209L284.644 209.129C345.504 183.097 368.796 150.628 369.442 149.71L368.624 149.134ZM372.47 146.779C370.894 146.98 369.498 147.853 368.62 149.14L369.446 149.704C370.166 148.649 371.308 147.936 372.596 147.771L372.47 146.779ZM377.443 148.768C376.242 147.285 374.352 146.542 372.47 146.779L372.596 147.771C374.139 147.576 375.686 148.187 376.665 149.398L377.443 148.768ZM413.586 248.863C413.11 211.994 400.61 177.381 377.443 148.768L376.665 149.398C399.692 177.835 412.112 212.232 412.586 248.875L413.586 248.863ZM411.419 253.309C412.805 252.253 413.609 250.604 413.586 248.862L412.586 248.876C412.605 250.3 411.947 251.649 410.813 252.513L411.419 253.309ZM408.087 254.434C409.277 254.434 410.451 254.048 411.419 253.308L410.813 252.514C410.021 253.118 409.061 253.434 408.087 253.434V254.434ZM406.558 254.217C407.062 254.364 407.576 254.434 408.087 254.434V253.434C407.668 253.434 407.248 253.376 406.838 253.257L406.558 254.217ZM341.03 244.987C363.324 244.987 385.371 248.093 406.559 254.217L406.837 253.257C385.557 247.105 363.416 243.987 341.03 243.987V244.987ZM300.742 248.418C313.95 246.142 327.504 244.987 341.03 244.987V243.987C327.448 243.987 313.836 245.146 300.572 247.432L300.742 248.418ZM294.736 245.125C295.726 247.487 298.216 248.859 300.743 248.418L300.571 247.432C298.506 247.793 296.468 246.673 295.658 244.739L294.736 245.125ZM281.457 215.651C286.184 225.473 290.651 235.39 294.736 245.125L295.658 244.739C291.567 234.986 287.092 225.055 282.359 215.217L281.457 215.651ZM281.263 211.334C280.736 212.739 280.806 214.299 281.458 215.651L282.358 215.217C281.826 214.111 281.768 212.835 282.199 211.684L281.263 211.334Z" fill="black"/>
<path fill-rule="evenodd" clip-rule="evenodd" d="M273.357 192.681C271.565 192.681 269.848 191.714 268.953 190.051C239.366 135.118 210.916 101.779 210.632 101.448C209.495 100.126 209.129 98.307 209.666 96.648C210.203 94.989 211.565 93.73 213.261 93.325C225.56 90.387 238.257 88.897 251 88.897C290.69 88.897 328.882 103.389 358.538 129.704C360.546 131.485 360.789 134.533 359.09 136.61C359.059 136.648 359.019 136.695 358.987 136.732C339.312 159.401 311.121 178.107 275.196 192.329C274.595 192.567 273.972 192.681 273.357 192.681Z" fill="black"/>
<path d="M268.953 190.051L269.393 189.814L269.393 189.814L268.953 190.051ZM210.632 101.448L211.011 101.122L211.011 101.122L210.632 101.448ZM209.666 96.648L209.19 96.494L209.19 96.494L209.666 96.648ZM213.261 93.325L213.377 93.8113L213.377 93.8113L213.261 93.325ZM358.538 129.704L358.206 130.078L358.206 130.078L358.538 129.704ZM359.09 136.61L358.703 136.293L358.703 136.294L359.09 136.61ZM358.987 136.732L359.365 137.06L359.365 137.059L358.987 136.732ZM275.196 192.329L275.012 191.864L275.012 191.864L275.196 192.329ZM268.513 190.288C269.498 192.118 271.387 193.181 273.357 193.181V192.181C271.743 192.181 270.198 191.31 269.393 189.814L268.513 190.288ZM210.253 101.774C210.521 102.087 238.948 135.396 268.513 190.288L269.393 189.814C239.784 134.84 211.311 101.471 211.011 101.122L210.253 101.774ZM209.19 96.494C208.6 98.3189 209.002 100.32 210.253 101.774L211.011 101.122C209.988 99.9322 209.658 98.2951 210.142 96.802L209.19 96.494ZM213.145 92.8387C211.279 93.2842 209.781 94.6691 209.19 96.494L210.142 96.802C210.625 95.3089 211.851 94.1758 213.377 93.8113L213.145 92.8387ZM251 88.397C238.218 88.397 225.482 89.8915 213.145 92.8387L213.377 93.8113C225.638 90.8825 238.296 89.397 251 89.397V88.397ZM358.87 129.33C329.122 102.934 290.812 88.397 251 88.397V89.397C290.568 89.397 328.642 103.844 358.206 130.078L358.87 129.33ZM359.477 136.927C361.346 134.642 361.079 131.289 358.87 129.33L358.206 130.078C360.013 131.681 360.232 134.424 358.703 136.293L359.477 136.927ZM359.365 137.059C359.399 137.02 359.442 136.969 359.477 136.926L358.703 136.294C358.676 136.327 358.639 136.37 358.609 136.405L359.365 137.059ZM275.38 192.794C311.359 178.551 339.624 159.804 359.365 137.06L358.609 136.404C339 158.998 310.883 177.663 275.012 191.864L275.38 192.794ZM273.357 193.181C274.034 193.181 274.72 193.055 275.38 192.794L275.012 191.864C274.47 192.079 273.91 192.181 273.357 192.181V193.181Z" fill="black"/>
<path fill-rule="evenodd" clip-rule="evenodd" d="M98.767 223.467C97.792 223.467 97.257 223.461 97.199 223.46C95.706 223.437 94.296 222.748 93.364 221.581C92.432 220.414 92.065 218.892 92.373 217.431C102.648 168.632 135.706 126.545 180.801 104.848C182.922 103.83 185.467 104.425 186.912 106.28C187.189 106.635 214.97 142.454 244.676 196.48C245.408 197.813 245.494 199.405 244.911 200.809C244.327 202.213 243.137 203.274 241.675 203.694C175.764 222.639 109.696 223.467 98.767 223.467Z" fill="black"/>
<path d="M97.199 223.46L97.2076 222.96L97.2067 222.96L97.199 223.46ZM93.364 221.581L92.9733 221.893L93.364 221.581ZM92.373 217.431L92.8622 217.534L92.8623 217.534L92.373 217.431ZM180.801 104.848L180.585 104.397L180.584 104.397L180.801 104.848ZM186.912 106.28L186.518 106.587L186.518 106.588L186.912 106.28ZM244.676 196.48L245.114 196.239L245.114 196.239L244.676 196.48ZM244.911 200.809L245.373 201.001L245.373 201.001L244.911 200.809ZM241.675 203.694L241.537 203.213L241.537 203.213L241.675 203.694ZM97.1904 223.96C97.2526 223.961 97.791 223.967 98.767 223.967V222.967C97.793 222.967 97.2613 222.961 97.2076 222.96L97.1904 223.96ZM92.9733 221.893C93.9989 223.177 95.5496 223.935 97.1913 223.96L97.2067 222.96C95.8624 222.939 94.5931 222.319 93.7547 221.269L92.9733 221.893ZM91.8837 217.328C91.5446 218.936 91.949 220.61 92.9733 221.893L93.7547 221.269C92.915 220.218 92.5853 218.848 92.8622 217.534L91.8837 217.328ZM180.584 104.397C135.35 126.161 102.191 168.376 91.8837 217.328L92.8623 217.534C103.105 168.888 136.062 126.929 181.018 105.299L180.584 104.397ZM187.306 105.973C185.717 103.932 182.917 103.278 180.585 104.397L181.017 105.299C182.927 104.382 185.217 104.918 186.518 106.587L187.306 105.973ZM245.114 196.239C215.391 142.182 187.593 106.341 187.306 105.972L186.518 106.588C186.785 106.929 214.549 142.726 244.238 196.721L245.114 196.239ZM245.373 201.001C246.014 199.457 245.919 197.706 245.114 196.239L244.238 196.721C244.897 197.92 244.974 199.353 244.449 200.617L245.373 201.001ZM241.813 204.175C243.421 203.713 244.73 202.545 245.373 201.001L244.449 200.617C243.924 201.881 242.853 202.835 241.537 203.213L241.813 204.175ZM98.767 223.967C109.71 223.967 175.834 223.139 241.813 204.175L241.537 203.213C175.694 222.139 109.681 222.967 98.767 222.967V223.967Z" fill="black"/>
<path fill-rule="evenodd" clip-rule="evenodd" d="M134.811 361.205C134.651 361.221 134.492 361.228 134.334 361.228C132.926 361.228 131.575 360.634 130.622 359.578C103.712 329.762 88.892 291.201 88.892 251C88.892 249.587 88.908 248.178 88.94 246.774C89.003 244.058 91.222 241.888 93.939 241.888C153.289 242.206 206.702 234.988 252.632 220.435C254.972 219.695 257.512 220.765 258.612 222.963C263.026 231.779 267.234 240.582 271.118 249.126C271.708 250.423 271.716 251.91 271.141 253.213C270.566 254.516 269.462 255.513 268.108 255.952C214.069 273.466 168.081 309.995 138.614 358.812C137.797 360.166 136.385 361.054 134.811 361.205Z" fill="black"/>
<path d="M134.811 361.205L134.763 360.707L134.761 360.707L134.811 361.205ZM130.622 359.578L130.993 359.243L130.993 359.243L130.622 359.578ZM88.94 246.774L88.4401 246.762L88.4401 246.763L88.94 246.774ZM93.939 241.888L93.9417 241.388H93.939V241.888ZM252.632 220.435L252.481 219.958L252.481 219.958L252.632 220.435ZM258.612 222.963L258.165 223.187L258.165 223.187L258.612 222.963ZM271.118 249.126L270.663 249.333L270.663 249.333L271.118 249.126ZM271.141 253.213L270.684 253.011L270.684 253.011L271.141 253.213ZM268.108 255.952L268.262 256.428L268.262 256.428L268.108 255.952ZM138.614 358.812L138.186 358.554L138.186 358.554L138.614 358.812ZM134.334 361.728C134.507 361.728 134.682 361.72 134.861 361.703L134.761 360.707C134.62 360.722 134.477 360.728 134.334 360.728V361.728ZM130.251 359.913C131.299 361.075 132.785 361.728 134.334 361.728V360.728C133.067 360.728 131.851 360.193 130.993 359.243L130.251 359.913ZM88.392 251C88.392 291.325 103.258 330.005 130.251 359.913L130.993 359.243C104.166 329.519 89.392 291.077 89.392 251H88.392ZM88.4401 246.763C88.408 248.17 88.392 249.583 88.392 251H89.392C89.392 249.591 89.408 248.186 89.4399 246.785L88.4401 246.763ZM93.939 241.388C90.9501 241.388 88.5094 243.775 88.4401 246.762L89.4399 246.786C89.4966 244.341 91.4939 242.388 93.939 242.388V241.388ZM252.481 219.958C206.611 234.492 153.251 241.706 93.9417 241.388L93.9363 242.388C153.327 242.706 206.793 235.484 252.783 220.912L252.481 219.958ZM259.059 222.739C257.849 220.321 255.055 219.144 252.481 219.958L252.783 220.912C254.889 220.246 257.175 221.209 258.165 223.187L259.059 222.739ZM271.573 248.919C267.686 240.369 263.476 231.56 259.059 222.739L258.165 223.187C262.576 231.998 266.782 240.795 270.663 249.333L271.573 248.919ZM271.598 253.415C272.231 251.982 272.222 250.346 271.573 248.919L270.663 249.333C271.194 250.5 271.201 251.838 270.684 253.011L271.598 253.415ZM268.262 256.428C269.752 255.945 270.966 254.848 271.598 253.415L270.684 253.011C270.166 254.184 269.172 255.081 267.954 255.476L268.262 256.428ZM139.042 359.07C168.447 310.356 214.338 273.904 268.262 256.428L267.954 255.476C213.8 273.028 167.715 309.634 138.186 358.554L139.042 359.07ZM134.859 361.703C136.59 361.537 138.143 360.56 139.042 359.07L138.186 358.554C137.451 359.772 136.18 360.571 134.763 360.707L134.859 361.703Z" fill="black"/>
</g>
<defs>
<clipPath id="clip0">
<rect width="502" height="502" fill="white"/>
</clipPath>
</defs>
</svg>
