<?xml version="1.0" encoding="iso-8859-1"?>
<!-- Generator: Adobe Illustrator 19.0.0, SVG Export Plug-In . SVG Version: 6.00 Build 0)  -->
<svg version="1.1" id="Layer_1" xmlns="http://www.w3.org/2000/svg" xmlns:xlink="http://www.w3.org/1999/xlink" x="0px" y="0px"
	 viewBox="0 0 502 502" style="enable-background:new 0 0 502 502;" xml:space="preserve">
<g>
	<g>
		<g>
			<path d="M497,0H5C2.238,0,0,2.239,0,5v492c0,2.761,2.238,5,5,5h492c2.762,0,5-2.239,5-5V5C502,2.239,499.762,0,497,0z M492,492
				H10V10h482V492z"/>
			<path d="M112.251,389.744c18.017,18.018,39,32.165,62.367,42.048c24.198,10.235,49.896,15.425,76.382,15.425
				c26.483,0,52.18-5.19,76.377-15.425c23.366-9.884,44.349-24.031,62.367-42.048c18.017-18.017,32.165-39.001,42.048-62.367
				c10.235-24.197,15.425-49.894,15.425-76.378c0-26.484-5.19-52.18-15.425-76.378c-9.884-23.366-24.031-44.349-42.048-62.367
				c-18.017-18.017-39-32.164-62.367-42.048C303.18,59.973,277.483,54.783,251,54.783c-26.486,0-52.184,5.19-76.382,15.425
				c-23.367,9.884-44.35,24.031-62.367,42.048c-18.016,18.017-32.162,39-42.045,62.367C59.972,198.819,54.783,224.516,54.783,251
				s5.189,52.181,15.423,76.377C80.089,350.744,94.235,371.727,112.251,389.744z M251,64.783
				c102.839,0,186.217,83.377,186.217,186.217S353.84,437.217,251,437.217C148.15,437.217,64.783,353.84,64.783,251
				C64.783,148.161,148.15,64.783,251,64.783z"/>
			<path d="M284.447,208.669c-1.255,0.536-2.237,1.563-2.716,2.84c-0.479,1.278-0.415,2.696,0.177,3.925
				c4.73,9.83,9.201,19.754,13.289,29.498c0.9,2.148,3.164,3.394,5.46,2.993c13.236-2.281,26.819-3.438,40.373-3.438
				c22.34,0,44.434,3.112,65.668,9.25c0.457,0.133,0.924,0.197,1.389,0.197c1.082,0,2.149-0.351,3.029-1.023
				c1.26-0.96,1.991-2.459,1.97-4.042c-0.475-36.756-12.935-71.261-36.032-99.786c-1.09-1.347-2.808-2.024-4.521-1.808
				c-1.432,0.183-2.701,0.976-3.5,2.147C368.431,150.278,345.208,182.68,284.447,208.669z M373.133,160.332
				c17.875,23.982,28.067,52.091,29.726,81.987c-20.094-5.199-40.859-7.831-61.829-7.831c-12.787,0-25.6,0.988-38.152,2.941
				c-3.064-7.175-6.324-14.426-9.73-21.649C340.052,194.839,364.176,170.788,373.133,160.332z"/>
			<path d="M268.953,190.051c0.895,1.663,2.612,2.63,4.404,2.63c0.615,0,1.238-0.114,1.839-0.352
				c35.925-14.222,64.116-32.928,83.791-55.597c0.032-0.037,0.072-0.084,0.103-0.122c1.699-2.077,1.456-5.125-0.552-6.906
				C328.882,103.389,290.69,88.897,251,88.897c-12.743,0-25.44,1.49-37.739,4.428c-1.696,0.405-3.058,1.664-3.595,3.323
				s-0.171,3.478,0.966,4.8C210.916,101.779,239.366,135.118,268.953,190.051z M251,98.897c35.561,0,69.835,12.395,97.081,35.008
				c-17.648,18.942-41.983,34.884-72.462,47.466c-22.043-40.27-42.73-68.083-52.136-79.984
				C232.526,99.733,241.749,98.897,251,98.897z"/>
			<path d="M97.199,223.46c0.058,0.001,0.593,0.007,1.568,0.007c10.929,0,76.997-0.828,142.908-19.773
				c1.462-0.42,2.652-1.481,3.236-2.885c0.583-1.404,0.497-2.996-0.235-4.329c-29.706-54.026-57.487-89.845-57.764-90.2
				c-1.445-1.855-3.99-2.45-6.111-1.432c-45.095,21.697-78.153,63.784-88.428,112.583c-0.308,1.461,0.059,2.983,0.991,4.15
				S95.706,223.437,97.199,223.46z M181.482,115.678c7.053,9.466,28.317,38.95,51.364,80.096
				c-56.099,15.185-111.063,17.363-129.278,17.652C114.243,171.546,142.886,135.561,181.482,115.678z"/>
			<path d="M134.334,361.228c0.158,0,0.317-0.007,0.477-0.023c1.574-0.151,2.986-1.039,3.803-2.393
				c29.467-48.817,75.455-85.346,129.494-102.86c1.354-0.439,2.458-1.436,3.033-2.739c0.575-1.303,0.567-2.79-0.023-4.087
				c-3.884-8.544-8.092-17.347-12.506-26.163c-1.1-2.198-3.64-3.268-5.98-2.528c-45.93,14.553-99.343,21.771-158.693,21.453
				c-2.717,0-4.936,2.17-4.999,4.886c-0.032,1.404-0.048,2.813-0.048,4.226c0,40.201,14.82,78.762,41.73,108.578
				C131.575,360.634,132.926,361.228,134.334,361.228z M251.56,231.239c2.821,5.709,5.546,11.396,8.143,16.992
				c-51.876,18.134-96.246,53.208-126.024,99.59C111.39,320.84,99.1,287.06,98.895,251.897
				C155.563,251.802,206.877,244.859,251.56,231.239z"/>
			<path d="M282.482,275.614c-0.973-2.41-3.636-3.672-6.116-2.9c-53.068,16.466-97.444,52.257-124.954,100.78
				c-1.233,2.174-0.67,4.925,1.317,6.441c28.442,21.695,62.423,33.163,98.271,33.163c21.491,0,42.353-4.135,62.004-12.29
				c2.108-0.874,3.356-3.066,3.034-5.325C310.628,357.611,299.338,317.281,282.482,275.614z M251,403.098
				c-32.163,0-62.725-9.838-88.669-28.494c25.596-43.034,65.315-75.102,112.609-90.925c15.033,37.959,25.325,74.703,30.623,109.336
				C288.195,399.707,269.858,403.098,251,403.098z"/>
			<path d="M407.305,273.22c-21.337-6.82-43.635-10.278-66.275-10.278c-10.481,0-21.017,0.755-31.316,2.244
				c-1.489,0.215-2.802,1.09-3.574,2.381c-0.773,1.291-0.923,2.861-0.409,4.276c13.359,36.761,22.638,73.932,27.577,110.479
				c0.231,1.71,1.328,3.18,2.9,3.889c0.657,0.295,1.357,0.441,2.055,0.441c0.974,0,1.944-0.285,2.779-0.845
				c36.776-24.607,62.169-63.597,69.667-106.973C411.134,276.376,409.682,273.98,407.305,273.22z M342.049,372.844
				c-4.967-32.671-13.3-65.757-24.822-98.547c7.874-0.899,15.854-1.354,23.803-1.354c20.118,0,39.949,2.859,59.014,8.505
				C392.65,317.788,371.834,350.531,342.049,372.844z"/>
			<path d="M437,454c0,2.761,2.238,5,5,5h13c2.762,0,5-2.239,5-5s-2.238-5-5-5h-13C439.238,449,437,451.239,437,454z"/>
			<path d="M406,448.999h-38c-2.762,0-5,2.239-5,5s2.238,5,5,5h38c2.762,0,5-2.239,5-5S408.762,448.999,406,448.999z"/>
		</g>
	</g>
</g>
<g>
</g>
<g>
</g>
<g>
</g>
<g>
</g>
<g>
</g>
<g>
</g>
<g>
</g>
<g>
</g>
<g>
</g>
<g>
</g>
<g>
</g>
<g>
</g>
<g>
</g>
<g>
</g>
<g>
</g>
</svg>
